name Walk6.mot
datacolumns 19
datarows 17
range 3.48500000 3.56500000
endheader

                time	   L_ground_force_vx	   L_ground_force_vy	   L_ground_force_vz	   L_ground_force_px	   L_ground_force_py	   L_ground_force_pz	   R_ground_force_vx	   R_ground_force_vy	   R_ground_force_vz	   R_ground_force_px	   R_ground_force_py	   R_ground_force_pz	   L_ground_torque_x	   L_ground_torque_y	   L_ground_torque_z	   R_ground_torque_x	   R_ground_torque_y	   R_ground_torque_z	
          3.48500000	         -0.00000000	         -0.00000000	         -0.00000000	          0.00000000	          0.00000000	         -0.00000000	          5.84743248	         39.75851016	          1.61959824	          0.45869057	          0.00000000	          0.07969440	          0.00000000	         -0.00000000	          0.00000000	          0.00000000	         -1.15552700	          0.00000000	
          3.49000000	         -0.00000000	         -0.00000000	         -0.00000000	          0.00000000	          0.00000000	          0.00000000	          3.55603731	         26.60777398	          0.78095633	          0.39648456	          0.00000000	          0.06872456	          0.00000000	         -0.00000000	          0.00000000	          0.00000000	         -0.74721126	          0.00000000	
          3.49500000	         -0.00000000	         -0.00000000	         -0.00000000	          0.00000000	          0.00000000	          0.00000000	          1.80548180	         16.15656191	          0.17647418	          0.32796701	          0.00000000	          0.05673063	          0.00000000	         -0.00000000	          0.00000000	          0.00000000	         -0.42769115	          0.00000000	
          3.50000000	         -0.00000000	         -0.00000000	         -0.00000000	          0.00000000	          0.00000000	          0.00000000	          0.54000944	          8.18364203	         -0.22557382	          0.25836537	          0.00000000	          0.04460069	          0.00000000	         -0.00000000	          0.00000000	          0.00000000	         -0.18907711	          0.00000000	
          3.50500000	         -0.00000000	         -0.00000000	         -0.00000000	          0.00000000	          0.00000000	          0.00000000	         -0.31422186	          2.42354413	         -0.46555981	          0.19329802	          0.00000000	          0.03329470	          0.00000000	         -0.00000000	          0.00000000	          0.00000000	         -0.02110497	          0.00000000	
          3.51000000	         -0.00000000	         -0.00000000	         -0.00000000	          0.00000000	          0.00000000	          0.00000000	         -0.83717269	         -1.46196811	         -0.58263803	          0.13628405	          0.00000000	          0.02341117	          0.00000000	         -0.00000000	          0.00000000	          0.00000000	          0.08828145	          0.00000000	
          3.51500000	         -0.00000000	         -0.00000000	         -0.00000000	          0.00000000	          0.00000000	          0.00000000	         -1.10632070	         -3.83804784	         -0.61163839	          0.08894367	          0.00000000	          0.01522152	          0.00000000	         -0.00000000	          0.00000000	          0.00000000	          0.15144686	          0.00000000	
          3.52000000	         -0.00000000	         -0.00000000	         -0.00000000	          0.00000000	          0.00000000	          0.00000000	         -1.19142351	         -5.05823857	         -0.58186257	          0.05155084	          0.00000000	          0.00876581	          0.00000000	         -0.00000000	          0.00000000	          0.00000000	          0.17997599	          0.00000000	
          3.52500000	         -0.00000000	         -0.00000000	         -0.00000000	          0.00000000	          0.00000000	          0.00000000	         -1.15177110	         -5.44067773	         -0.51674961	          0.02349449	          0.00000000	          0.00393262	          0.00000000	         -0.00000000	          0.00000000	          0.00000000	          0.18403724	          0.00000000	
          3.53000000	         -0.00000000	         -0.00000000	         -0.00000000	          0.00000000	          0.00000000	          0.00000000	         -1.03525161	         -5.25563673	         -0.43412529	          0.00364437	          0.00000000	          0.00052217	          0.00000000	         -0.00000000	          0.00000000	          0.00000000	          0.17208653	          0.00000000	
          3.53500000	          0.00000000	         -0.00000000	         -0.00000000	          0.00000000	          0.00000000	          0.00000000	         -0.87865403	         -4.72131621	         -0.34680585	         -0.00937336	          0.00000000	         -0.00170618	          0.00000000	          0.00000000	          0.00000000	          0.00000000	          0.15081280	          0.00000000	
          3.54000000	          0.00000000	          0.00000000	         -0.00000000	          0.00000000	          0.00000000	          0.00000000	         -0.70874013	         -4.00526778	         -0.26338144	         -0.01698005	          0.00000000	         -0.00300025	          0.00000000	          0.00000000	          0.00000000	          0.00000000	          0.12524290	          0.00000000	
          3.54500000	          0.00000000	          0.00000000	          0.00000000	          0.00000000	          0.00000000	          0.00000000	         -0.54372486	         -3.22931154	         -0.18905269	         -0.02051516	          0.00000000	         -0.00359282	          0.00000000	          0.00000000	          0.00000000	          0.00000000	          0.09894022	          0.00000000	
          3.55000000	          0.00000000	          0.00000000	          0.00000000	          0.00000000	          0.00000000	          0.00000000	         -0.39490170	         -2.47630634	         -0.12643532	         -0.02115966	          0.00000000	         -0.00368868	          0.00000000	          0.00000000	          0.00000000	          0.00000000	          0.07424785	          0.00000000	
          3.55500000	          0.00000000	          0.00000000	          0.00000000	          0.00000000	          0.00000000	          0.00000000	         -0.26823235	         -1.79757281	         -0.07628051	         -0.01989949	          0.00000000	         -0.00345842	          0.00000000	          0.00000000	          0.00000000	          0.00000000	          0.05254100	          0.00000000	
          3.56000000	          0.00000000	          0.00000000	          0.00000000	         -0.00000000	          0.00000000	         -0.00000000	         -0.16578781	         -1.22014786	         -0.03808434	         -0.01751756	          0.00000000	         -0.00303724	          0.00000000	          0.00000000	          0.00000000	          0.00000000	          0.03446546	          0.00000000	
          3.56500000	          0.00000000	          0.00000000	          0.00000000	         -0.00000000	          0.00000000	         -0.00000000	         -0.08698030	         -0.75335749	         -0.01057786	         -0.01460464	          0.00000000	         -0.00252694	          0.00000000	          0.00000000	          0.00000000	          0.00000000	          0.02014817	          0.00000000	
